<svg width="70" height="70" viewBox="0 0 70 70" fill="none" xmlns="http://www.w3.org/2000/svg">
<rect width="70" height="70" fill="#DC0B35"/>
<path d="M22.1721 39.3001C22.0028 38.875 21.7608 38.5108 21.4464 38.2133C21.1318 37.9158 20.7569 37.6912 20.3214 37.5395C19.886 37.3877 19.3961 37.333 18.8578 37.333H12.9549V50.2037H14.098V45.5534H18.8517C19.39 45.5534 19.8799 45.4743 20.3154 45.3225C20.7508 45.1708 21.1258 44.9462 21.4403 44.6487C21.7548 44.3512 21.9967 43.987 22.1661 43.5619C22.3355 43.137 22.4744 42.5177 22.4744 41.7224C22.4866 40.9697 22.3415 39.7312 22.1721 39.3001ZM20.5391 43.7684C20.0432 44.1751 19.4021 44.3755 18.6038 44.3755H14.098V38.5168H18.6038C19.4021 38.5168 20.0432 38.6991 20.5391 39.0996C21.0351 39.5066 21.277 40.6235 21.277 41.4615C21.2831 42.293 21.0351 43.3616 20.5391 43.7684Z" fill="white"/>
<path d="M26.2244 20.6314V33.5083H25.0812V20.6314H26.2244Z" fill="white"/>
<path d="M56.0956 37.333V41.6739C56.0956 42.4754 55.896 43.1189 55.4908 43.6166C55.1097 44.084 54.5351 44.333 53.7792 44.3574H51.0152C50.2531 44.333 49.6848 44.084 49.3036 43.6166C48.8984 43.1189 48.6988 42.4754 48.6988 41.6739V37.333H47.5256V41.9532C47.5256 42.4935 47.6042 42.9853 47.7552 43.4223C47.9065 43.8594 48.1304 44.2358 48.4267 44.5516C48.7231 44.8673 49.0859 45.1101 49.5092 45.28C49.8963 45.432 50.3379 45.5168 50.8218 45.529H51.8135V50.1977H52.9869V45.5352H53.9788C54.4626 45.523 54.8981 45.4379 55.2912 45.2862C55.7145 45.1161 56.0775 44.8733 56.3738 44.5576C56.6702 44.242 56.8939 43.8656 57.0451 43.4283C57.1964 42.9913 57.275 42.4995 57.275 41.9592V37.339H56.0956V37.333Z" fill="white"/>
<path d="M14.6423 22.5741C15.0838 22.1188 15.731 21.8092 16.7289 21.8092H20.7629V20.6314H16.7289C16.1725 20.6435 15.6765 20.7043 15.229 20.856C14.7391 21.02 14.3278 21.2628 13.9831 21.5724C13.6444 21.8821 13.3843 22.2525 13.215 22.6895C13.0396 23.1206 12.9549 23.6062 12.9549 24.1345V33.5083H14.1282V28.8274H20.0372V27.6496H14.1282V24.5775C14.1343 23.6549 14.231 22.9992 14.6423 22.5741Z" fill="white"/>
<path d="M26.5993 48.261C27.0408 48.7164 27.688 49.0259 28.6859 49.0259H32.236V50.2037H28.6859C28.1294 50.1917 27.6334 50.1067 27.1861 49.9549C26.6961 49.791 26.2849 49.548 25.94 49.2385C25.6015 48.9289 25.3413 48.5585 25.172 48.1214C24.9966 47.6904 24.9118 47.2046 24.9118 46.6765V37.3087H26.0853V45.4258C26.0912 46.3426 26.188 47.8421 26.5993 48.261Z" fill="white"/>
<path d="M44.4047 39.4397C44.2535 39.0026 44.0298 38.6262 43.7335 38.3106C43.4371 37.9947 43.0741 37.7519 42.6508 37.582C42.2637 37.4303 41.8222 37.3452 41.3384 37.333H38.2538C37.77 37.3452 37.3345 37.4303 36.9415 37.582C36.5181 37.7519 36.1551 37.9947 35.8588 38.3106C35.5624 38.6262 35.3387 39.0026 35.1875 39.4397C35.0362 39.8767 34.9576 40.3685 34.9576 40.909V50.2037H36.131V45.523H43.4612V50.2037H44.6346V40.909C44.6346 40.3685 44.556 39.8829 44.4047 39.4397ZM36.131 44.3452V41.164C36.131 40.3625 36.3307 39.719 36.7359 39.2212C37.1168 38.7536 37.6914 38.5048 38.4475 38.4805H41.1328C41.8949 38.5048 42.4633 38.7536 42.8444 39.2212C43.2496 39.719 43.449 40.3625 43.449 41.164V44.3452H36.131Z" fill="white"/>
<path d="M41.4473 22.7442C41.296 22.307 41.0723 21.9306 40.776 21.6149C40.4796 21.2992 40.1166 21.0564 39.6933 20.8864C39.3062 20.7346 38.8707 20.6496 38.3869 20.6375H32.109V33.5083H33.2824V21.7788H38.1692C38.9312 21.8031 39.4999 22.052 39.8808 22.5196C40.286 23.0174 40.4856 23.6609 40.4856 24.4623V33.5021H41.665V24.2133C41.671 23.6731 41.5983 23.1813 41.4473 22.7442Z" fill="white"/>
<path d="M56.8577 22.7442C56.7064 22.307 56.4827 21.9306 56.1864 21.6149C55.89 21.2992 55.527 21.0564 55.1037 20.8864C54.7166 20.7346 54.2811 20.6496 53.7973 20.6375H47.5256V33.5083H48.6988V21.7788H53.5856C54.3476 21.8031 54.9162 22.052 55.2974 22.5196C55.7026 23.0174 55.902 23.6609 55.902 24.4623V33.5021H57.0814V24.2133C57.0876 23.6731 57.0089 23.1813 56.8577 22.7442Z" fill="white"/>
</svg>
